<svg xmlns="http://www.w3.org/2000/svg" viewBox="0 0 829.83 849.08"><defs><style>.cls-1{fill:#5ec1da;}.cls-2{fill:#1d1d1b;}.cls-3{fill:#1b3e72;}.cls-4{fill:#53bed8;}</style></defs><title>svgAtivo 12</title><g id="Camada_2" data-name="Camada 2"><g id="Camada_2-2" data-name="Camada 2"><path class="cls-1" d="M405.29,849.08a422.93,422.93,0,0,1-148.62-26.74,10,10,0,0,1,7-18.73,403.17,403.17,0,0,0,141.61,25.47c223.07,0,404.54-181.47,404.54-404.54S628.36,20,405.29,20C228,20,73,133.46,19.54,302.33a10,10,0,1,1-19.07-6A425.39,425.39,0,0,1,152.1,83.73C225.72,29,313.27,0,405.29,0A424.65,424.65,0,0,1,570.55,815.72,421.93,421.93,0,0,1,405.29,849.08Z"/><path class="cls-2" d="M405.29,797.59A373.15,373.15,0,0,1,260.08,80.81a374.37,374.37,0,0,1,281.68-3.57,10,10,0,0,1-7.32,18.61A351.6,351.6,0,0,0,405.29,71.49c-194.67,0-353,158.38-353,353.05S210.62,777.59,405.29,777.59s353.05-158.38,353.05-353c0-4.17-.07-8.39-.21-12.55a10,10,0,0,1,20-.7c.16,4.39.23,8.85.23,13.25a372.75,372.75,0,0,1-373,373.05Z"/><path class="cls-1" d="M102.67,382.16A11,11,0,0,1,101,382a10,10,0,0,1-8.16-11.55A316.8,316.8,0,0,1,393.74,107.66a10,10,0,0,1,.71,20c-139.71,5-258.28,108.55-281.94,246.2A10,10,0,0,1,102.67,382.16Z"/><path class="cls-2" d="M558.43,185.87a29,29,0,0,0-29-29h-78a29,29,0,0,0-29,29v96.38c-5-.49-10-.74-15-.74a149.42,149.42,0,0,0-106.5,44.22,151.63,151.63,0,0,0-25.54,34,137.06,137.06,0,0,0-31,87.34c0,2.3.06,4.68.18,7.08a28.7,28.7,0,0,0-.15,2.92V663.87a29,29,0,0,0,29,29h63a29,29,0,0,0,29-29V582.79q6.22.6,12.52.6a132.55,132.55,0,0,0,14.28-.78,153.72,153.72,0,0,0,15.37.78A150.87,150.87,0,0,0,558.38,432.45c0-2.14,0-4.36-.15-6.61a27.65,27.65,0,0,0,.2-3.39ZM414.94,479.49a39.3,39.3,0,1,1,39.3-39.3A39.3,39.3,0,0,1,414.94,479.49Z"/><path class="cls-3" d="M336.43,673.87a10,10,0,0,0,10-10v-104A112.2,112.2,0,0,0,378,564.4c63.27,0,114.57-52.5,114.57-117.27S441.24,329.86,378,329.86,263.4,382.36,263.4,447.13c0,2.65.09,5.29.26,7.9a10.39,10.39,0,0,0-.23,2.1V663.87a10,10,0,0,0,10,10Zm78.51-293a59.3,59.3,0,1,1-59.3,59.3A59.36,59.36,0,0,1,414.94,380.89Z"/><path class="cls-1" d="M677.7,576.43a10,10,0,0,1-8.86-14.62,297.84,297.84,0,0,0,33.54-137.27c0-94.58-43.5-181.35-119.34-238.07a10,10,0,1,1,12-16,320,320,0,0,1,92.67,109.73,313.71,313.71,0,0,1,34.69,144.36,317.86,317.86,0,0,1-35.81,146.52A10,10,0,0,1,677.7,576.43Z"/><path class="cls-4" d="M539.43,185.87a10,10,0,0,0-10-10h-78a10,10,0,0,0-10,10V304.94a132.63,132.63,0,0,0-92.55,9.14,132,132,0,0,1,123.69,36.85,138.22,138.22,0,0,1,0,192.4q-4.38,4.49-9.07,8.48A131.91,131.91,0,0,0,539.38,432.4q0-3.87-.23-7.69a9.74,9.74,0,0,0,.28-2.31Z"/></g></g></svg>